<?xml version="1.0" standalone="no"?>
<!DOCTYPE svg PUBLIC "-//W3C//DTD SVG 20010904//EN"
 "http://www.w3.org/TR/2001/REC-SVG-20010904/DTD/svg10.dtd">
<svg version="1.0" xmlns="http://www.w3.org/2000/svg"
 width="514.000000pt" height="485.000000pt" viewBox="0 0 514.000000 485.000000"
 preserveAspectRatio="xMidYMid meet">

<g transform="translate(0.000000,485.000000) scale(0.100000,-0.100000)"
fill="#06928A" stroke="none">
<path d="M3300 4505 c-10 -12 -9 -16 4 -21 37 -14 56 -68 56 -157 0 -59 4 -87
13 -90 9 -4 9 -6 0 -6 -9 -1 -10 -8 -4 -23 5 -13 7 -33 5 -46 -3 -14 0 -21 6
-17 5 3 10 1 10 -4 0 -6 -6 -11 -14 -11 -9 0 -12 -7 -9 -18 5 -22 -55 -192
-69 -192 -5 0 -7 -4 -3 -10 8 -13 -74 -172 -85 -165 -5 3 -7 -1 -4 -9 3 -9 -5
-21 -21 -32 -14 -9 -24 -23 -21 -29 9 -25 -103 -126 -147 -134 -4 0 -23 -8
-43 -16 -20 -8 -49 -15 -65 -15 -17 0 -34 -8 -42 -21 -9 -12 -18 -16 -21 -10
-4 5 -2 12 4 16 6 4 7 11 4 17 -4 7 -2 8 4 4 7 -4 12 -2 12 4 0 6 4 9 9 5 6
-3 13 1 18 9 4 8 11 15 16 14 63 0 186 59 165 80 -8 8 -5 9 11 5 18 -5 21 -1
20 28 0 28 -2 30 -8 14 -5 -11 -6 -24 -4 -28 3 -5 -4 -4 -16 2 -12 7 -21 8
-20 4 4 -23 -4 -32 -33 -41 -18 -6 -40 -10 -48 -10 -25 1 -99 -22 -105 -32 -3
-6 -13 -10 -21 -10 -12 0 -12 3 -2 20 7 11 18 20 25 20 7 0 13 4 13 9 0 5 12
12 26 15 39 10 98 53 82 59 -9 4 -7 6 5 6 9 1 17 6 17 13 0 6 3 9 6 5 7 -6 53
34 156 136 97 97 94 99 -116 137 -33 5 -83 10 -113 10 -55 0 -71 15 -28 26 14
3 25 13 25 21 0 11 -6 14 -22 9 -13 -3 -31 -6 -40 -6 -9 0 -30 -12 -47 -26
-28 -23 -35 -24 -33 -3 2 14 -45 -16 -63 -40 l-19 -26 22 19 c19 16 22 17 22
3 0 -8 -6 -22 -13 -29 -7 -7 -23 -28 -36 -46 -12 -18 -27 -29 -33 -26 -6 4 -9
1 -6 -7 5 -13 -47 -99 -63 -107 -4 -2 -5 -11 -2 -22 3 -12 -3 -22 -16 -29 -17
-10 -21 -9 -21 4 0 9 4 13 10 10 5 -3 7 0 5 8 -8 18 93 169 107 161 7 -4 8 -2
4 5 -4 6 -2 19 6 28 8 11 8 14 1 10 -6 -4 -16 0 -21 9 -5 9 -24 18 -43 20 -19
2 -63 8 -99 14 -36 6 -121 13 -190 15 -69 2 -134 7 -145 11 -23 8 -55 39 -55
52 0 5 -11 19 -25 32 -14 13 -25 29 -25 35 0 6 -11 33 -24 61 -12 27 -26 61
-29 75 -4 14 -16 38 -28 53 l-22 28 -29 -30 c-31 -34 -36 -63 -14 -81 14 -12
69 -143 81 -193 4 -16 13 -28 21 -28 8 0 11 7 8 18 -3 9 13 -3 35 -27 22 -25
39 -48 38 -52 -1 -4 7 -15 18 -23 11 -8 15 -16 9 -16 -6 0 -19 9 -29 20 -22
24 -40 26 -31 4 12 -30 -4 -32 -35 -3 -32 30 -55 35 -154 30 -44 -2 -200 -41
-224 -55 -5 -3 -14 8 -21 25 -9 22 -11 69 -6 177 4 81 9 162 12 180 4 17 2 32
-3 32 -11 0 -49 -295 -47 -362 0 -10 -4 -18 -9 -18 -5 0 -4 -6 2 -14 10 -12
13 -86 3 -86 -17 0 -42 24 -38 36 4 11 2 12 -13 4 -14 -7 -22 -6 -31 5 -7 8
-18 15 -25 15 -6 0 -17 11 -23 25 -9 18 -19 25 -41 25 -16 0 -33 5 -36 10 -3
6 -11 10 -16 10 -14 0 37 -43 81 -68 19 -11 34 -25 32 -31 -1 -7 2 -21 8 -31
9 -16 7 -20 -7 -20 -10 0 -42 -16 -70 -35 -29 -19 -56 -35 -61 -35 -4 0 -38
-29 -75 -64 -68 -67 -119 -100 -132 -88 -5 4 -5 2 -2 -5 5 -7 -6 -16 -29 -23
-19 -7 -38 -18 -41 -26 -3 -8 -11 -14 -19 -14 -14 0 -174 -153 -174 -166 0 -4
-11 -22 -25 -40 -14 -18 -25 -37 -25 -43 0 -6 -3 -11 -7 -11 -8 0 -88 -117
-88 -129 0 -3 -5 -13 -10 -21 -5 -8 -22 -41 -37 -74 -103 -216 -166 -526 -153
-746 12 -187 30 -262 84 -360 17 -30 31 -64 31 -74 0 -11 5 -33 10 -50 6 -17
23 -79 39 -138 42 -156 135 -316 286 -494 55 -65 165 -172 194 -188 8 -5 29
-24 46 -41 180 -190 564 -390 892 -466 172 -40 648 -36 853 7 255 53 603 218
843 401 324 246 591 668 718 1133 64 235 58 631 -14 860 -26 83 -75 194 -122
279 -25 46 -44 86 -41 88 11 12 -61 124 -138 216 -94 113 -338 304 -411 323
-5 1 -37 9 -70 18 -32 9 -83 16 -111 16 -57 0 -246 35 -277 52 -17 9 -18 17
-12 61 18 142 23 210 19 302 -8 188 -54 318 -94 270z m-506 -617 c-1 -13 -3
-23 -5 -23 -1 0 -3 -13 -4 -30 -2 -16 -4 -47 -6 -68 -2 -21 -7 -41 -11 -43 -4
-3 -3 -14 2 -25 14 -24 2 -44 -27 -45 -23 -1 -31 20 -13 31 6 3 10 11 10 18 0
6 -7 2 -15 -9 -8 -10 -15 -14 -15 -7 0 6 12 21 26 32 15 12 21 21 13 21 -10 0
-11 2 -2 8 13 8 15 72 1 72 -7 0 -12 -15 -9 -32 0 -5 -4 -8 -10 -8 -6 0 -9 -6
-7 -12 3 -7 -1 -19 -9 -26 -7 -7 -13 -22 -13 -33 0 -25 -18 -59 -39 -77 -14
-11 -13 -12 5 -3 19 9 20 6 22 -32 0 -23 -1 -36 -4 -29 -3 6 -12 12 -20 12 -9
0 -12 5 -9 10 3 6 1 10 -4 10 -6 0 -11 -6 -12 -12 0 -10 -2 -10 -5 -1 -3 7
-12 9 -20 6 -8 -3 -14 0 -14 7 0 6 9 14 21 17 16 4 18 8 7 14 -11 7 -10 11 2
19 8 5 11 10 6 10 -5 0 -2 8 5 17 8 9 9 14 3 10 -16 -9 -26 19 -11 31 7 5 22
13 35 16 12 4 23 12 23 17 3 18 5 24 19 51 8 15 18 27 23 27 4 1 13 1 20 1 6
0 4 5 -5 11 -21 12 -24 45 -5 52 10 4 13 -2 9 -21 -5 -24 -4 -26 12 -13 9 8
14 16 11 19 -4 4 13 32 20 32 1 0 1 -10 -1 -22z m-587 -21 c6 -12 35 -52 65
-87 37 -43 57 -77 60 -99 l5 -35 -19 25 c-63 82 -145 219 -130 219 5 0 13 -10
19 -23z m19 -215 c3 -13 16 -46 29 -75 28 -57 28 -57 17 -57 -14 0 -42 58 -82
171 -22 61 -40 114 -40 118 1 13 72 -134 76 -157z m-486 128 c0 -5 -5 -10 -11
-10 -5 0 -7 5 -4 10 3 6 8 10 11 10 2 0 4 -4 4 -10z m-103 -47 c-8 -7 -35 9
-41 23 -4 11 0 11 20 -2 13 -9 23 -18 21 -21z m1315 -4 c7 -16 16 -29 19 -29
3 0 6 -7 6 -15 0 -8 -4 -12 -9 -9 -4 3 -8 -1 -8 -9 0 -7 -16 -18 -35 -24 -33
-11 -34 -10 -45 22 -11 34 -4 85 13 96 18 12 46 -3 59 -32z m-455 19 c19 -2
26 -60 11 -89 -7 -14 -19 -24 -26 -21 -6 2 -12 -1 -12 -8 0 -6 -4 -8 -10 -5
-5 3 -10 1 -10 -5 0 -7 -15 -9 -40 -6 -23 3 -40 1 -40 -5 0 -6 -5 -7 -12 -3
-9 6 -9 9 0 12 7 2 9 9 6 14 -5 7 -2 8 7 3 8 -5 6 1 -5 13 -16 19 -17 25 -6
52 21 52 40 58 137 48z m1329 -99 c52 -17 91 -38 210 -116 11 -7 -3 -3 -31 8
-80 33 -163 47 -215 36 -73 -16 -310 20 -310 47 0 17 71 37 147 42 49 4 89 8
91 9 5 4 39 -4 108 -26z m-2192 -5 c13 -3 44 -31 68 -62 l44 -57 -71 -3 c-38
-1 -128 -4 -200 -6 -161 -4 -193 -15 -345 -114 -133 -87 -188 -130 -244 -192
-23 -24 -58 -63 -80 -85 -33 -34 -36 -36 -21 -10 10 17 37 55 59 85 22 30 39
60 38 65 -2 6 -1 7 3 4 3 -4 36 25 73 65 88 93 124 123 162 130 3 1 10 4 15 8
6 3 58 22 118 42 114 38 194 73 203 88 3 5 0 15 -6 23 -10 12 -9 16 1 19 8 2
21 7 29 10 16 6 116 0 154 -10z m990 -101 c9 -18 14 -33 12 -33 -6 0 -36 55
-36 66 0 11 5 3 24 -33z m-510 -24 c-3 -5 -10 -7 -15 -3 -5 3 -7 10 -3 15 3 5
10 7 15 3 5 -3 7 -10 3 -15z m189 -4 c-3 -9 -8 -14 -10 -11 -3 3 -2 9 2 15 9
16 15 13 8 -4z m-32 -29 c5 3 9 0 9 -5 0 -6 -7 -11 -15 -11 -8 0 -15 8 -14 18
0 10 3 12 6 4 2 -6 9 -10 14 -6z m167 -30 c1 -41 -7 -55 -36 -56 -9 0 -10 22
-1 35 4 6 7 20 5 30 -3 18 9 34 25 35 4 0 7 -20 7 -44z m-86 -28 c-15 -15 -26
-4 -18 18 5 13 9 15 18 6 9 -9 9 -15 0 -24z m554 7 c-3 -8 0 -15 6 -15 16 0
-14 -31 -51 -53 l-30 -18 2 29 c1 16 7 28 12 25 6 -2 21 8 33 22 25 28 37 33
28 10z m-36 -9 c0 -3 -4 -8 -10 -11 -5 -3 -10 -1 -10 4 0 6 5 11 10 11 6 0 10
-2 10 -4z m741 -21 c107 -27 168 -54 255 -112 53 -35 75 -63 49 -63 -17 0
-208 37 -255 50 -19 5 -58 11 -87 14 -28 2 -57 7 -62 11 -6 3 -11 0 -11 -7 0
-9 -3 -10 -8 -2 -4 6 -23 15 -42 19 -44 9 -120 43 -120 53 0 18 27 43 55 51
58 15 126 11 226 -14z m-1846 -45 c3 -5 -1 -10 -9 -10 -9 0 -16 5 -16 10 0 6
4 10 9 10 6 0 13 -4 16 -10z m691 -41 c3 -5 -6 -9 -20 -9 -24 0 -41 12 -30 23
7 7 43 -3 50 -14z m74 -30 c0 -6 -7 -8 -16 -5 -10 4 -13 2 -8 -6 5 -8 2 -9
-10 -5 -10 4 -22 7 -27 7 -5 0 -9 5 -9 10 0 6 16 10 35 10 19 0 35 -5 35 -11z
m-599 -15 c11 -14 10 -15 -11 -12 -13 1 -25 9 -28 16 -5 17 23 15 39 -4z
m2449 -9 c7 -9 8 -15 2 -15 -5 0 -12 7 -16 15 -3 8 -4 15 -2 15 2 0 9 -7 16
-15z m-1460 -45 c47 -47 1 -88 -63 -59 -26 12 -51 54 -42 70 11 17 84 10 105
-11z m-715 -60 c8 -14 -13 -40 -32 -40 -7 0 -16 7 -20 16 -10 26 38 47 52 24z
m-739 -51 c167 -50 170 -52 199 -144 27 -86 29 -88 98 -81 69 7 109 -11 128
-56 17 -41 53 -36 161 21 51 27 136 64 188 82 81 28 108 33 185 32 122 -1 215
-36 199 -76 -3 -8 -1 -18 5 -22 22 -13 10 -63 -34 -151 -39 -78 -60 -103 -160
-201 -63 -62 -115 -109 -115 -105 -1 4 -9 -2 -18 -13 -10 -11 -27 -26 -37 -32
-25 -16 -149 -75 -195 -93 -19 -7 -40 -17 -47 -22 -20 -16 -155 -21 -203 -8
-44 12 -70 15 -137 18 -26 2 -36 10 -64 55 -18 28 -33 55 -34 59 0 4 -6 13
-12 20 -10 9 -16 9 -25 0 -7 -7 -20 -12 -29 -12 -9 0 -22 -6 -29 -14 -22 -28
-138 -59 -191 -52 -54 7 -112 31 -149 61 -41 33 -106 116 -140 180 -31 58 -32
64 -27 151 3 79 9 101 41 167 72 149 206 257 321 257 28 0 83 -9 121 -21z
m1863 -39 c100 -28 107 -159 13 -239 -26 -23 -50 -41 -54 -41 -5 0 -25 15 -46
34 -42 38 -92 128 -92 164 0 71 84 110 179 82z"/>
<path d="M2750 3680 c-9 -6 -10 -10 -3 -10 6 0 15 5 18 10 8 12 4 12 -15 0z"/>
<path d="M1215 4060 c-3 -5 -13 -6 -22 -3 -11 4 -14 3 -9 -5 4 -7 17 -10 30
-6 13 3 40 -1 60 -10 49 -21 46 -11 -6 14 -49 23 -45 23 -53 10z"/>
<path d="M1150 4039 c0 -5 5 -7 10 -4 6 3 10 8 10 11 0 2 -4 4 -10 4 -5 0 -10
-5 -10 -11z"/>
<path d="M2268 4043 c7 -3 16 -2 19 1 4 3 -2 6 -13 5 -11 0 -14 -3 -6 -6z"/>
<path d="M3018 4043 c6 -2 18 -2 25 0 6 3 1 5 -13 5 -14 0 -19 -2 -12 -5z"/>
<path d="M2200 4030 c-18 -12 -2 -12 25 0 13 6 15 9 5 9 -8 0 -22 -4 -30 -9z"/>
<path d="M3245 3890 c-3 -6 1 -7 9 -4 18 7 21 14 7 14 -6 0 -13 -4 -16 -10z"/>
</g>
</svg>
