<?xml version="1.0" standalone="no"?>
<!DOCTYPE svg PUBLIC "-//W3C//DTD SVG 20010904//EN"
 "http://www.w3.org/TR/2001/REC-SVG-20010904/DTD/svg10.dtd">
<svg version="1.0" xmlns="http://www.w3.org/2000/svg"
 width="526.000000pt" height="475.000000pt" viewBox="0 0 526.000000 475.000000"
 preserveAspectRatio="xMidYMid meet">

<g transform="translate(0.000000,475.000000) scale(0.100000,-0.100000)"
fill="#ffffff" stroke="none">
<path d="M3456 4221 c-4 -7 -5 -15 -2 -18 9 -9 19 4 14 18 -4 11 -6 11 -12 0z"/>
<path d="M3434 4155 c-7 -19 -14 -40 -14 -48 0 -22 -49 -158 -66 -185 -8 -13
-17 -33 -18 -45 -1 -12 -10 -36 -19 -53 -9 -17 -13 -34 -10 -38 4 -3 1 -6 -6
-6 -6 0 -11 -6 -10 -12 3 -25 -1 -39 -9 -34 -5 3 -9 0 -10 -7 -3 -32 -20 -94
-30 -113 -15 -28 -111 -116 -156 -142 l-35 -21 -7 22 c-4 11 -13 27 -20 35
-17 16 -18 32 -3 32 15 0 69 39 69 51 0 5 -7 9 -15 9 -8 0 -54 11 -101 25 -89
26 -183 31 -275 16 -43 -7 -45 -6 -41 15 2 12 -4 36 -13 54 -15 28 -16 51 -11
154 6 110 5 123 -13 145 -18 24 -20 24 -52 8 -30 -15 -31 -17 -10 -17 16 0 21
-4 17 -15 -4 -10 1 -15 14 -15 13 0 20 -7 20 -20 0 -13 -7 -20 -20 -20 -11 0
-20 -5 -20 -11 0 -5 5 -7 10 -4 6 3 10 -1 10 -10 0 -11 -5 -15 -14 -12 -8 3
-22 -5 -31 -17 -15 -20 -23 -22 -57 -16 l-40 8 6 -30 c3 -17 6 -34 6 -39 0 -5
11 -9 25 -9 23 0 25 -3 22 -49 -1 -27 -6 -46 -11 -43 -5 3 -7 -11 -3 -31 3
-21 1 -39 -5 -43 -6 -4 -8 -23 -5 -45 4 -29 2 -36 -8 -32 -8 2 -15 19 -17 37
l-3 33 -85 -19 c-47 -10 -116 -26 -155 -34 -38 -9 -94 -23 -123 -32 -52 -16
-54 -16 -65 3 -7 11 -14 31 -17 45 -7 33 -37 38 -49 8 -7 -17 -10 -19 -10 -5
-1 18 -31 25 -31 6 0 -24 -18 4 -36 57 -13 40 -26 59 -42 65 -13 5 -27 7 -31
5 -4 -3 -13 16 -20 42 -7 26 -34 117 -61 202 -27 85 -52 170 -55 188 -4 18
-13 32 -21 32 -10 0 -11 -6 -4 -26 19 -48 39 -168 50 -288 13 -132 30 -197 66
-239 13 -16 24 -32 24 -37 0 -5 17 -25 37 -45 l38 -37 -35 -29 c-39 -33 -58
-32 -115 4 -114 71 -131 85 -160 137 -36 66 -110 142 -164 170 -43 21 -145 28
-156 10 -4 -6 13 -10 43 -10 61 0 137 -25 173 -58 15 -13 43 -56 62 -96 19
-39 50 -87 68 -107 38 -40 112 -92 147 -103 12 -4 22 -14 22 -22 0 -14 -18
-23 -100 -56 -44 -18 -3 -20 76 -4 85 18 134 20 134 7 0 -4 -21 -14 -47 -21
-27 -6 -113 -31 -193 -55 -80 -24 -165 -49 -190 -55 -190 -49 -423 -306 -534
-590 -39 -100 -64 -213 -77 -352 -24 -242 29 -516 146 -753 187 -380 412 -615
744 -776 384 -187 803 -225 1361 -123 285 52 482 133 725 298 270 184 519 550
549 808 1 9 8 23 14 31 25 30 63 163 78 271 22 156 14 410 -16 520 -30 110
-114 317 -162 401 -102 176 -276 343 -448 432 -48 26 -304 106 -332 105 -10
-1 -18 3 -18 7 0 14 -164 51 -192 43 -15 -4 -8 14 26 65 19 28 45 71 57 95 13
24 27 45 30 48 4 3 16 43 28 89 22 88 29 199 11 171 -11 -17 -13 -1 -4 25 5
13 8 14 15 3 6 -8 9 1 9 27 1 22 5 59 9 83 10 51 5 54 -15 7z m-49 -285 c3 -5
1 -10 -4 -10 -6 0 -11 5 -11 10 0 6 2 10 4 10 3 0 8 -4 11 -10z m-2 -32 c-5
-7 -15 -31 -22 -52 -8 -22 -18 -44 -22 -50 -5 -6 -18 -22 -29 -35 -30 -36 -25
-15 17 71 21 43 44 77 52 78 9 0 10 -4 4 -12z m-905 -336 c-2 -15 2 -26 7 -25
6 1 11 -19 12 -44 3 -52 8 -62 25 -45 16 16 28 15 28 -2 0 -14 -64 -76 -79
-76 -5 0 -19 -20 -32 -45 -13 -25 -28 -45 -32 -45 -15 0 -149 82 -143 87 3 3
12 1 20 -6 8 -7 27 -16 43 -20 24 -7 29 -5 30 8 1 14 -5 16 -30 13 -30 -5 -30
-4 -14 12 9 10 29 21 44 26 16 4 37 11 47 16 15 6 17 4 11 -7 -4 -8 -5 -11 0
-7 4 4 13 3 20 -2 8 -7 11 -3 10 13 -2 12 -8 21 -14 19 -8 -1 -7 8 3 31 7 19
17 57 21 85 7 52 28 64 23 14z m450 -54 c-2 -7 3 -12 10 -10 15 3 10 -23 -14
-70 -23 -45 -128 -108 -147 -89 -8 8 -5 11 9 11 11 0 25 5 32 12 7 7 12 9 12
5 0 -4 11 5 24 20 14 16 36 41 50 56 14 16 22 35 19 43 -3 8 -6 14 -8 14 -7 0
-42 -38 -48 -52 -3 -10 -22 -20 -44 -24 -21 -4 -50 -13 -64 -20 -24 -12 -28
-11 -48 10 l-22 24 23 0 c39 2 83 17 156 53 67 33 63 32 60 17z m909 -297 c42
-19 92 -61 73 -61 -13 0 -74 32 -115 59 -38 26 -14 27 42 2z m-2121 -138 c12
-10 29 -44 38 -75 19 -67 37 -80 99 -72 28 4 47 2 51 -5 11 -18 53 -13 104 13
64 31 132 47 225 51 l78 4 20 -32 c24 -39 20 -69 -23 -157 -45 -92 -90 -162
-175 -268 -83 -104 -152 -163 -233 -199 -46 -21 -65 -24 -117 -19 -35 3 -72
10 -82 16 -11 5 -65 19 -120 29 -90 18 -150 43 -151 63 0 4 -7 5 -15 2 -8 -4
-15 -1 -15 5 0 6 -7 11 -15 11 -8 0 -15 5 -15 10 0 6 -8 10 -17 10 -36 0 -101
35 -122 65 -27 40 -29 166 -4 241 45 136 189 274 321 308 74 20 144 19 168 -1z
m1270 -4 c45 -21 71 -68 58 -102 -4 -12 -1 -17 12 -18 15 -1 15 -2 3 -6 -8 -2
-21 -20 -29 -41 -15 -43 -65 -119 -95 -144 -38 -32 -109 -19 -139 27 -9 14
-26 62 -37 106 -23 88 -19 116 23 169 21 27 28 29 92 29 51 1 81 -5 112 -20z
m-1676 4 c0 -13 -64 -63 -80 -63 -9 1 1 15 24 35 38 34 56 43 56 28z"/>
<path d="M1400 4123 c0 -14 54 -63 69 -62 11 0 12 2 4 6 -7 2 -13 9 -13 14 0
6 6 7 13 4 6 -4 3 0 -7 9 -10 8 -22 13 -26 11 -5 -3 -10 2 -14 10 -5 15 -26
21 -26 8z"/>
<path d="M2484 3968 l-19 -23 25 20 c14 11 27 21 29 22 2 2 0 3 -6 3 -5 0 -18
-10 -29 -22z"/>
<path d="M2475 3721 c-3 -5 -2 -12 3 -15 5 -3 9 1 9 9 0 17 -3 19 -12 6z"/>
<path d="M2471 3656 c-1 -26 2 -37 9 -30 6 6 6 21 1 39 -9 30 -9 30 -10 -9z"/>
<path d="M3207 3656 c-9 -10 -15 -22 -12 -27 4 -5 -1 -6 -9 -3 -9 3 -16 1 -16
-5 0 -5 -27 -33 -60 -60 -57 -48 -58 -50 -30 -49 20 1 42 14 70 40 22 21 40
42 40 46 0 5 9 18 21 30 25 27 21 53 -4 28z"/>
</g>
</svg>
